<?xml version="1.0" encoding="utf-8"?>
<!-- Generator: Adobe Illustrator 27.2.0, SVG Export Plug-In . SVG Version: 6.00 Build 0)  -->
<svg version="1.1" id="Layer_1" xmlns:serif="http://www.serif.com/"
	 xmlns="http://www.w3.org/2000/svg" xmlns:xlink="http://www.w3.org/1999/xlink" x="0px" y="0px" viewBox="0 0 534 164"
	 style="enable-background:new 0 0 534 164;" xml:space="preserve">
<style type="text/css">
	.st0{fill:#030404;}
	.st1{fill-rule:evenodd;clip-rule:evenodd;fill:#030404;}
</style>
<g>
	<path class="st0" d="M75.2,108.8c1.8,0,3.5-0.2,5.1-0.5c1.6-0.4,3.1-0.9,4.3-1.8c1.2-0.8,2.2-1.9,3-3.3c0.7-1.4,1.1-3.2,1.1-5.4
		c0-4.3-1.2-7.4-3.6-9.2c-2.4-1.8-5.6-2.7-9.6-2.7h-20v23L75.2,108.8L75.2,108.8z M74.2,73.2c3.3,0,6-0.8,8.1-2.3
		c2.1-1.5,3.1-4.1,3.1-7.6c0-1.9-0.3-3.5-1-4.8c-0.7-1.2-1.7-2.2-2.8-2.9c-1.2-0.7-2.5-1.2-4-1.5c-1.5-0.3-3.1-0.4-4.7-0.4H55.6
		v19.5L74.2,73.2L74.2,73.2z M76.6,39.5c4,0,7.6,0.3,10.9,1.1c3.3,0.7,6.1,1.9,8.4,3.4c2.3,1.6,4.1,3.7,5.5,6.4
		c1.3,2.6,1.9,5.9,1.9,9.8c0,4.2-1,7.7-2.9,10.5c-1.9,2.8-4.7,5.1-8.5,6.9c5.1,1.5,8.9,4.1,11.5,7.8c2.5,3.7,3.8,8.2,3.8,13.4
		c0,4.2-0.8,7.9-2.4,10.9c-1.6,3.1-3.9,5.6-6.6,7.6c-2.8,2-5.9,3.4-9.5,4.3c-3.5,0.9-7.2,1.4-10.9,1.4H37.2V39.5L76.6,39.5
		L76.6,39.5z"/>
	<path class="st0" d="M152.4,76.7c-2-2.2-5.3-3.4-9.4-3.4c-2.7,0-4.8,0.4-6.6,1.4c-1.7,0.9-3.1,2-4.2,3.3c-1.1,1.3-1.8,2.8-2.2,4.3
		c-0.4,1.5-0.7,2.8-0.8,4h27C155.8,82.1,154.4,78.9,152.4,76.7L152.4,76.7z M133.3,108.5c2.5,2.4,6.1,3.6,10.7,3.6
		c3.3,0,6.2-0.8,8.7-2.5c2.4-1.7,3.9-3.5,4.4-5.4h14.6c-2.4,7.3-5.9,12.5-10.8,15.6c-4.8,3.1-10.7,4.7-17.5,4.7
		c-4.8,0-9-0.8-12.9-2.3c-3.8-1.5-7.1-3.7-9.8-6.5c-2.6-2.8-4.7-6.2-6.1-10.1c-1.4-3.9-2.2-8.2-2.2-12.9c0-4.5,0.8-8.7,2.2-12.6
		c1.5-3.9,3.6-7.3,6.3-10.1c2.7-2.8,6-5.1,9.8-6.7c3.8-1.6,8-2.5,12.6-2.5c5.1,0,9.6,1,13.4,3c3.8,2,7,4.7,9.4,8
		c2.5,3.3,4.2,7.2,5.3,11.5c1.1,4.3,1.5,8.8,1.2,13.5h-43.6C129.2,101.6,130.8,106.1,133.3,108.5L133.3,108.5z"/>
	<path class="st0" d="M196.4,39.5V71h0.4c2.1-3.5,4.8-6,8-7.6c3.3-1.6,6.5-2.4,9.6-2.4c4.4,0,8.1,0.6,10.9,1.8
		c2.8,1.2,5.1,2.9,6.7,5c1.6,2.1,2.8,4.8,3.4,7.8c0.7,3.1,1,6.5,1,10.2V123h-16.7V88.9c0-5-0.8-8.7-2.3-11.2
		c-1.5-2.4-4.3-3.7-8.3-3.7c-4.5,0-7.7,1.4-9.7,4c-2,2.7-3,7.1-3,13.3V123h-16.7V39.5L196.4,39.5L196.4,39.5z"/>
	<path class="st0" d="M281,94.9c-1,0.3-2.2,0.6-3.4,0.9c-1.2,0.2-2.5,0.4-3.8,0.6c-1.3,0.2-2.6,0.3-4,0.6c-1.2,0.2-2.5,0.6-3.7,0.9
		c-1.2,0.4-2.3,0.9-3.1,1.6c-0.9,0.7-1.6,1.5-2.2,2.5c-0.5,1-0.8,2.3-0.8,3.9c0,1.5,0.3,2.7,0.8,3.7c0.6,1,1.3,1.8,2.2,2.4
		c0.9,0.6,2,1,3.3,1.2c1.2,0.3,2.5,0.3,3.8,0.3c3.3,0,5.8-0.5,7.6-1.6c1.8-1.1,3.1-2.4,4-3.9c0.9-1.5,1.4-3.1,1.5-4.6
		c0.2-1.6,0.3-2.8,0.3-3.8v-6.2C282.9,94.1,282.1,94.6,281,94.9L281,94.9z M248.3,71.4c1.7-2.6,3.9-4.7,6.5-6.2
		c2.7-1.6,5.6-2.7,8.9-3.3c3.3-0.7,6.6-1,10-1c3,0,6.1,0.2,9.2,0.6c3.1,0.4,5.9,1.3,8.5,2.5c2.6,1.3,4.7,3,6.3,5.2
		c1.6,2.2,2.5,5.2,2.5,8.8v31.5c0,2.7,0.2,5.3,0.5,7.8c0.3,2.5,1.2,4.4,2,5.6l-17,0c-0.5-0.7-0.9-1.9-1.1-2.8c-0.2-1-0.3-2-0.4-3
		c-2.6,2.7-5.7,4.7-9.3,5.8c-3.6,1.1-7.2,1.6-11,1.6c-2.9,0-5.5-0.4-8-1.1c-2.5-0.7-4.7-1.8-6.5-3.3c-1.9-1.5-3.3-3.4-4.4-5.6
		c-1.1-2.3-1.6-5-1.6-8.1c0-3.4,0.6-6.3,1.8-8.5c1.2-2.2,2.7-4,4.7-5.3c1.9-1.3,4.1-2.3,6.6-3c2.4-0.7,4.9-1.2,7.4-1.6
		c2.5-0.4,4.9-0.7,7.4-0.9c2.4-0.2,4.5-0.6,6.4-1.1c1.9-0.5,3.3-1.2,4.4-2.1c1.1-0.9,1.6-2.2,1.5-3.9c0-1.8-0.3-3.2-0.9-4.3
		c-0.6-1-1.4-1.9-2.3-2.4c-1-0.6-2.1-1-3.4-1.2c-1.3-0.2-2.7-0.3-4.1-0.3c-3.3,0-5.8,0.7-7.6,2.1c-1.9,1.4-3,3.8-3.3,7.1h-16.7
		C245.6,77.2,246.6,74,248.3,71.4L248.3,71.4z"/>
	<path class="st0" d="M325.2,62.6V71h0.4c2.1-3.5,4.8-6,8.2-7.6c3.3-1.6,6.8-2.4,10.3-2.4c4.5,0,8.1,0.6,10.9,1.8
		c2.9,1.2,5.1,2.9,6.7,5c1.7,2.1,2.8,4.8,3.5,7.8c0.7,3.1,1,6.5,1,10.2V123h-16.7V88.9c0-5-0.8-8.7-2.3-11.2c-1.6-2.4-4.3-4-8.3-4
		c-4.5,0-7.8,1.7-9.8,4.4c-2,2.7-3,7.1-3,13.3V123h-16.5V62.6H325.2L325.2,62.6z"/>
	<path class="st0" d="M403.1,73.4c-2.7,0-4.9,0.6-6.6,1.8c-1.8,1.2-3.3,2.8-4.4,4.7c-1.1,1.9-1.9,4-2.4,6.3
		c-0.5,2.3-0.7,4.6-0.7,6.9c0,2.2,0.3,4.4,0.7,6.7c0.5,2.3,1.2,4.3,2.3,6.2c1.1,1.8,2.5,3.3,4.3,4.5c1.8,1.2,4,1.8,6.5,1.8
		c4,0,7.1-1.1,9.2-3.3c2.1-2.2,3.5-5.2,4-8.9h16c-1.1,8-4.2,14.1-9.4,18.4c-5.1,4.2-11.8,6.3-19.8,6.3c-4.5,0-8.7-0.8-12.5-2.3
		c-3.8-1.5-7-3.7-9.7-6.4c-2.7-2.7-4.7-6-6.2-9.8c-1.5-3.8-2.2-8-2.2-12.5c0-4.7,0.7-9,2-13.1c1.4-4,3.4-7.5,6.1-10.4
		c2.7-2.9,5.9-5.2,9.7-6.9c3.8-1.6,8.2-2.5,13.1-2.5c3.6,0,7,0.5,10.4,1.4c3.3,0.9,6.3,2.4,8.9,4.3c2.6,1.9,4.7,4.3,6.4,7.1
		c1.6,2.8,2.5,6.2,2.8,10.1h-16.3C414.3,76.8,410.2,73.4,403.1,73.4L403.1,73.4z"/>
	<rect x="125.8" y="45.1" class="st1" width="33.8" height="8.2"/>
	<path class="st0" d="M476.3,76.7c-2-2.2-5.4-3.4-9.4-3.4c-2.6,0-4.9,0.4-6.6,1.4c-1.7,0.9-3.3,2-4.3,3.3c-1.1,1.3-1.8,2.8-2.3,4.3
		c-0.4,1.5-0.7,2.8-0.7,4h27.2C479.7,82.1,478.2,78.9,476.3,76.7L476.3,76.7z M457,108.5c2.5,2.4,6.3,3.6,10.9,3.6
		c3.3,0,6.2-0.8,8.6-2.5c2.4-1.7,3.9-3.5,4.4-5.4h14.6c-2.3,7.3-5.9,12.5-10.8,15.6c-4.8,3.1-10.7,4.7-17.5,4.7
		c-4.8,0-9.1-0.8-12.9-2.3c-3.8-1.5-7.1-3.7-9.7-6.5c-2.7-2.8-4.7-6.2-6.2-10.1c-1.4-3.9-2.2-8.2-2.2-12.9c0-4.5,0.7-8.7,2.2-12.6
		c1.5-3.9,3.6-7.3,6.3-10.1c2.8-2.8,6-5.1,9.8-6.7c3.8-1.6,8-2.5,12.6-2.5c5.1,0,9.6,1,13.4,3c3.8,2,7,4.7,9.4,8
		c2.5,3.3,4.2,7.2,5.3,11.5c1.1,4.3,1.5,8.8,1.2,13.5h-43.8C452.9,101.6,454.5,106.1,457,108.5L457,108.5z"/>
</g>
</svg>
