<svg width="180" height="46" viewBox="0 0 180 46" fill="none" xmlns="http://www.w3.org/2000/svg">
<path d="M15.64 29.7C16.36 29.4467 16.9133 29.2933 17.3 29.24L19.84 16.74C19.3333 16.6467 18.8467 16.5133 18.38 16.34L18.44 16H24.44C25.8267 16 26.8333 16.2 27.46 16.6C28.1 16.9867 28.42 17.5867 28.42 18.4C28.42 18.6267 28.3867 18.92 28.32 19.28C28.1867 20.0267 27.8467 20.7067 27.3 21.32C26.7667 21.92 26.0667 22.3267 25.2 22.54V22.66C26.04 22.8333 26.6467 23.1733 27.02 23.68C27.3933 24.1733 27.58 24.7467 27.58 25.4C27.58 25.5733 27.5533 25.82 27.5 26.14C27.2333 27.4333 26.68 28.4 25.84 29.04C25.0133 29.68 23.8 30 22.2 30H15.6L15.64 29.7ZM22.78 22.2C23.54 22.2 24.1667 21.9533 24.66 21.46C25.1667 20.9667 25.5067 20.2867 25.68 19.42C25.76 19.06 25.8 18.7467 25.8 18.48C25.8 17.9467 25.6467 17.5533 25.34 17.3C25.0467 17.0467 24.58 16.92 23.94 16.92H22.4L21.32 22.2H22.78ZM22.04 29.12C23.56 29.12 24.5267 28.0933 24.94 26.04C25.0067 25.6667 25.04 25.3533 25.04 25.1C25.04 24.4467 24.8667 23.9533 24.52 23.62C24.1867 23.2733 23.6867 23.1 23.02 23.1H21.14L19.92 29.12H22.04ZM41.4294 27.14C41.056 28.02 40.5694 28.7533 39.9694 29.34C39.3694 29.9133 38.696 30.2 37.9494 30.2C37.5094 30.2 37.156 30.0267 36.8894 29.68C36.6227 29.3333 36.4894 28.8867 36.4894 28.34C36.4894 28.14 36.5094 27.92 36.5494 27.68L37.2094 24.48C37.436 23.3867 37.5494 22.58 37.5494 22.06C37.5494 21.5933 37.4627 21.26 37.2894 21.06C37.116 20.86 36.8294 20.76 36.4294 20.76C35.9894 20.76 35.4627 21.04 34.8494 21.6C34.236 22.1467 33.616 22.8867 32.9894 23.82L31.7294 30L29.1494 30.2L31.8694 16.86C31.4027 16.7533 30.9894 16.6267 30.6294 16.48L30.6694 16.28L34.6094 15.88L33.2694 22.46C33.8027 21.7133 34.416 21.0933 35.1094 20.6C35.816 20.1067 36.5627 19.86 37.3494 19.86C38.2427 19.86 38.9227 20.0533 39.3894 20.44C39.8694 20.8133 40.1094 21.3867 40.1094 22.16C40.1094 22.4933 40.076 22.8133 40.0094 23.12L39.0094 27.98C38.956 28.2467 38.9294 28.44 38.9294 28.56C38.9294 28.8933 39.0294 29.06 39.2294 29.06C39.4694 29.06 39.7627 28.8267 40.1094 28.36C40.4694 27.8933 40.7494 27.4067 40.9494 26.9L41.4294 27.14ZM54.6264 27.14C54.2664 28.02 53.7797 28.7533 53.1664 29.34C52.5531 29.9133 51.8797 30.2 51.1464 30.2C50.7197 30.2 50.3531 30.0667 50.0464 29.8C49.7531 29.5333 49.6064 29.1533 49.6064 28.66C49.6064 28.4867 49.6264 28.3 49.6664 28.1L49.8064 27.44C49.2597 28.2267 48.6131 28.8867 47.8664 29.42C47.1331 29.94 46.3531 30.2 45.5264 30.2C44.6464 30.2 43.9731 30.0133 43.5064 29.64C43.0397 29.2667 42.8064 28.6933 42.8064 27.92C42.8064 27.5733 42.8397 27.2533 42.9064 26.96L44.1464 20.8C43.7731 20.7333 43.3597 20.6133 42.9064 20.44L42.9464 20.24L46.8864 19.84L45.4664 26.88C45.3597 27.3867 45.3064 27.78 45.3064 28.06C45.3064 28.5 45.3997 28.82 45.5864 29.02C45.7864 29.22 46.0797 29.32 46.4664 29.32C46.9197 29.32 47.4664 29.0267 48.1064 28.44C48.7597 27.84 49.4197 27.0467 50.0864 26.06L51.2864 20.04H53.8264L52.2064 27.98C52.1664 28.18 52.1464 28.3667 52.1464 28.54C52.1464 28.8867 52.2464 29.06 52.4464 29.06C52.6731 29.06 52.9597 28.8333 53.3064 28.38C53.6531 27.9133 53.9331 27.42 54.1464 26.9L54.6264 27.14ZM73.8784 27.14C73.5051 28.02 73.0184 28.7533 72.4184 29.34C71.8184 29.9133 71.1451 30.2 70.3984 30.2C69.9584 30.2 69.6051 30.0267 69.3384 29.68C69.0718 29.3333 68.9384 28.8867 68.9384 28.34C68.9384 28.1133 68.9584 27.8933 68.9984 27.68L69.6584 24.48C69.8984 23.3733 70.0184 22.5467 70.0184 22C70.0184 21.5467 69.9318 21.2267 69.7584 21.04C69.5984 20.8533 69.3251 20.76 68.9384 20.76C68.5251 20.76 68.0451 21.0067 67.4984 21.5C66.9651 21.9933 66.3984 22.68 65.7984 23.56L64.4984 30L62.0184 30.2L63.5384 22.8C63.6051 22.4933 63.6384 22.1867 63.6384 21.88C63.6384 21.4667 63.5451 21.18 63.3584 21.02C63.1851 20.8467 62.9251 20.76 62.5784 20.76C62.1384 20.76 61.6318 21.0133 61.0584 21.52C60.4984 22.0267 59.9184 22.72 59.3184 23.6L58.0184 30L55.4384 30.2L57.3584 20.8C56.9851 20.7333 56.5718 20.6133 56.1184 20.44L56.1584 20.24L60.0784 19.84L59.5784 22.26C60.0984 21.5533 60.6851 20.98 61.3384 20.54C62.0051 20.0867 62.7184 19.86 63.4784 19.86C64.3318 19.86 64.9718 20.04 65.3984 20.4C65.8384 20.7467 66.0584 21.26 66.0584 21.94L66.0384 22.26C66.5584 21.5533 67.1384 20.98 67.7784 20.54C68.4318 20.0867 69.1318 19.86 69.8784 19.86C71.6651 19.86 72.5584 20.62 72.5584 22.14C72.5584 22.4867 72.5251 22.8133 72.4584 23.12L71.4584 27.98C71.4051 28.2467 71.3784 28.44 71.3784 28.56C71.3784 28.8933 71.4851 29.06 71.6984 29.06C71.9384 29.06 72.2251 28.8333 72.5584 28.38C72.9051 27.9133 73.1851 27.42 73.3984 26.9L73.8784 27.14ZM78.2316 19.1C77.8716 19.1 77.5916 19.0067 77.3916 18.82C77.2049 18.6333 77.1116 18.38 77.1116 18.06C77.1116 17.58 77.2716 17.18 77.5916 16.86C77.9116 16.5267 78.3049 16.36 78.7716 16.36C79.1182 16.36 79.3916 16.46 79.5916 16.66C79.7916 16.8467 79.8916 17.1 79.8916 17.42C79.8916 17.8867 79.7249 18.2867 79.3916 18.62C79.0716 18.94 78.6849 19.1 78.2316 19.1ZM76.7916 30.2C76.3649 30.2 75.9982 30.06 75.6916 29.78C75.3982 29.4867 75.2516 29.0867 75.2516 28.58C75.2516 28.3933 75.2716 28.1933 75.3116 27.98L76.7716 20.86C76.4249 20.78 75.9982 20.66 75.4916 20.5L75.5516 20.28L79.4716 19.9L77.8316 27.92C77.7916 28.1333 77.7716 28.3467 77.7716 28.56C77.7716 28.8933 77.8649 29.06 78.0516 29.06C78.3049 29.06 78.5916 28.84 78.9116 28.4C79.2449 27.9467 79.5249 27.4467 79.7516 26.9L80.2316 27.14C79.8716 28.02 79.3916 28.7533 78.7916 29.34C78.1916 29.9133 77.5249 30.2 76.7916 30.2ZM92.3159 19.74C92.6226 19.74 92.8559 19.8333 93.0159 20.02C93.1893 20.1933 93.2759 20.4333 93.2759 20.74C93.2759 20.7933 93.2626 20.9 93.2359 21.06C93.1826 21.2867 93.0559 21.4933 92.8559 21.68C92.6693 21.8667 92.4559 21.96 92.2159 21.96C91.9893 21.96 91.8359 21.9067 91.7559 21.8C91.6759 21.6933 91.6226 21.5467 91.5959 21.36C91.5693 21.24 91.5359 21.1533 91.4959 21.1C91.4693 21.0333 91.4093 21 91.3159 21C91.2093 21 91.0759 21.0667 90.9159 21.2C90.7559 21.3333 90.6559 21.42 90.6159 21.46L87.6759 23.9L89.8159 27.86C90.0693 28.3267 90.3959 28.56 90.7959 28.56C91.0893 28.56 91.3626 28.3733 91.6159 28C91.8826 27.6133 92.1159 27.16 92.3159 26.64L92.7559 26.94C92.6359 27.3667 92.4359 27.8333 92.1559 28.34C91.8759 28.8467 91.5293 29.2867 91.1159 29.66C90.7026 30.02 90.2426 30.2 89.7359 30.2C89.3493 30.2 89.0093 30.0667 88.7159 29.8C88.4226 29.52 88.1159 29.08 87.7959 28.48L86.0559 25.24L84.6959 26.38L83.9559 30L81.3759 30.2L84.1159 16.86C83.6493 16.7533 83.2293 16.6267 82.8559 16.48L82.8959 16.28L86.8359 15.88L84.9559 25.08L90.0159 20.92C90.4826 20.5467 90.8893 20.26 91.2359 20.06C91.5826 19.8467 91.9426 19.74 92.3159 19.74ZM96.0052 30.2C95.1785 30.2 94.5785 29.9467 94.2052 29.44C93.8452 28.9333 93.6652 28.2733 93.6652 27.46C93.6652 27.0467 93.7252 26.54 93.8452 25.94C94.1785 24.2867 94.8452 22.86 95.8452 21.66C96.8452 20.46 98.2385 19.86 100.025 19.86C100.665 19.86 101.232 20.06 101.725 20.46L101.805 20.04H104.325L102.685 28.04C102.645 28.24 102.625 28.4133 102.625 28.56C102.625 28.88 102.732 29.04 102.945 29.04C103.185 29.04 103.472 28.8133 103.805 28.36C104.138 27.9067 104.418 27.42 104.645 26.9L105.105 27.14C104.732 28.02 104.245 28.7533 103.645 29.34C103.045 29.9133 102.372 30.2 101.625 30.2C101.198 30.2 100.838 30.0533 100.545 29.76C100.265 29.4667 100.125 29.0533 100.125 28.52C100.125 28.3333 100.145 28.14 100.185 27.94L100.585 25.98C99.2652 28.7933 97.7385 30.2 96.0052 30.2ZM97.2452 29.06C97.6852 29.06 98.1785 28.7267 98.7252 28.06C99.2718 27.3933 99.7652 26.62 100.205 25.74C100.658 24.86 100.938 24.1667 101.045 23.66L101.525 21.26C101.138 20.82 100.678 20.6 100.145 20.6C99.2652 20.6 98.5052 21.06 97.8652 21.98C97.2385 22.9 96.7852 24 96.5052 25.28C96.3585 25.9333 96.2852 26.5867 96.2852 27.24C96.2852 28.4533 96.6052 29.06 97.2452 29.06ZM114.17 30.2C113.117 30.2 112.204 30.0267 111.43 29.68C110.657 29.3333 110.11 28.88 109.79 28.32L110.63 25.46H111.25C111.264 25.5533 111.27 25.7067 111.27 25.92C111.27 26.56 111.21 27.2733 111.09 28.06C111.344 28.42 111.69 28.7133 112.13 28.94C112.584 29.1533 113.104 29.26 113.69 29.26C114.557 29.26 115.337 29.0267 116.03 28.56C116.737 28.0933 117.177 27.42 117.35 26.54C117.39 26.3533 117.41 26.18 117.41 26.02C117.41 25.5933 117.29 25.2267 117.05 24.92C116.824 24.6133 116.537 24.36 116.19 24.16C115.844 23.96 115.377 23.7267 114.79 23.46C114.124 23.1533 113.584 22.88 113.17 22.64C112.77 22.3867 112.424 22.06 112.13 21.66C111.85 21.2467 111.71 20.7467 111.71 20.16C111.71 19.9333 111.744 19.6533 111.81 19.32C112.05 18.1733 112.67 17.3 113.67 16.7C114.67 16.1 115.917 15.8 117.41 15.8C118.397 15.8 119.21 15.92 119.85 16.16C120.504 16.3867 121.024 16.7533 121.41 17.26L120.65 19.86H120.01C119.984 19.5667 119.97 19.3133 119.97 19.1C119.97 18.6067 120.01 18.08 120.09 17.52C119.85 17.2667 119.53 17.0733 119.13 16.94C118.73 16.8067 118.284 16.74 117.79 16.74C116.91 16.74 116.184 16.92 115.61 17.28C115.05 17.64 114.697 18.18 114.55 18.9C114.524 19.06 114.51 19.1733 114.51 19.24C114.51 19.5733 114.61 19.8667 114.81 20.12C115.01 20.36 115.257 20.5667 115.55 20.74C115.857 20.9 116.284 21.1133 116.83 21.38C117.55 21.7133 118.13 22.0267 118.57 22.32C119.024 22.6 119.404 22.9733 119.71 23.44C120.03 23.9067 120.19 24.48 120.19 25.16C120.19 25.48 120.15 25.82 120.07 26.18C119.897 27.0067 119.524 27.7267 118.95 28.34C118.39 28.94 117.69 29.4 116.85 29.72C116.024 30.04 115.13 30.2 114.17 30.2ZM125.782 30.2C124.329 30.2 123.216 29.8733 122.442 29.22C121.669 28.5667 121.282 27.6333 121.282 26.42C121.282 26.0333 121.336 25.5733 121.442 25.04C121.776 23.4 122.502 22.1267 123.622 21.22C124.742 20.3133 126.169 19.86 127.902 19.86C129.369 19.86 130.489 20.1867 131.262 20.84C132.036 21.4933 132.422 22.4267 132.422 23.64C132.422 24.04 132.369 24.5067 132.262 25.04C131.929 26.6667 131.196 27.9333 130.062 28.84C128.942 29.7467 127.516 30.2 125.782 30.2ZM125.982 29.32C126.862 29.32 127.636 28.94 128.302 28.18C128.982 27.42 129.456 26.3733 129.722 25.04C129.842 24.48 129.902 23.96 129.902 23.48C129.902 22.6133 129.709 21.9467 129.322 21.48C128.949 21 128.416 20.76 127.722 20.76C126.842 20.76 126.062 21.14 125.382 21.9C124.716 22.66 124.242 23.7067 123.962 25.04C123.856 25.5333 123.802 26.0333 123.802 26.54C123.802 27.42 123.989 28.1067 124.362 28.6C124.749 29.08 125.289 29.32 125.982 29.32ZM135.38 30.2C134.553 30.2 133.953 29.9467 133.58 29.44C133.22 28.9333 133.04 28.2733 133.04 27.46C133.04 27.0467 133.1 26.54 133.22 25.94C133.553 24.2867 134.22 22.86 135.22 21.66C136.22 20.46 137.613 19.86 139.4 19.86C140.04 19.86 140.607 20.06 141.1 20.46L141.18 20.04H143.7L142.06 28.04C142.02 28.24 142 28.4133 142 28.56C142 28.88 142.107 29.04 142.32 29.04C142.56 29.04 142.847 28.8133 143.18 28.36C143.513 27.9067 143.793 27.42 144.02 26.9L144.48 27.14C144.107 28.02 143.62 28.7533 143.02 29.34C142.42 29.9133 141.747 30.2 141 30.2C140.573 30.2 140.213 30.0533 139.92 29.76C139.64 29.4667 139.5 29.0533 139.5 28.52C139.5 28.3333 139.52 28.14 139.56 27.94L139.96 25.98C138.64 28.7933 137.113 30.2 135.38 30.2ZM136.62 29.06C137.06 29.06 137.553 28.7267 138.1 28.06C138.647 27.3933 139.14 26.62 139.58 25.74C140.033 24.86 140.313 24.1667 140.42 23.66L140.9 21.26C140.513 20.82 140.053 20.6 139.52 20.6C138.64 20.6 137.88 21.06 137.24 21.98C136.613 22.9 136.16 24 135.88 25.28C135.733 25.9333 135.66 26.5867 135.66 27.24C135.66 28.4533 135.98 29.06 136.62 29.06ZM163.546 27.14C163.173 28.02 162.686 28.7533 162.086 29.34C161.486 29.9133 160.813 30.2 160.066 30.2C159.626 30.2 159.273 30.0267 159.006 29.68C158.74 29.3333 158.606 28.8867 158.606 28.34C158.606 28.1133 158.626 27.8933 158.666 27.68L159.326 24.48C159.566 23.3733 159.686 22.5467 159.686 22C159.686 21.5467 159.6 21.2267 159.426 21.04C159.266 20.8533 158.993 20.76 158.606 20.76C158.193 20.76 157.713 21.0067 157.166 21.5C156.633 21.9933 156.066 22.68 155.466 23.56L154.166 30L151.686 30.2L153.206 22.8C153.273 22.4933 153.306 22.1867 153.306 21.88C153.306 21.4667 153.213 21.18 153.026 21.02C152.853 20.8467 152.593 20.76 152.246 20.76C151.806 20.76 151.3 21.0133 150.726 21.52C150.166 22.0267 149.586 22.72 148.986 23.6L147.686 30L145.106 30.2L147.026 20.8C146.653 20.7333 146.24 20.6133 145.786 20.44L145.826 20.24L149.746 19.84L149.246 22.26C149.766 21.5533 150.353 20.98 151.006 20.54C151.673 20.0867 152.386 19.86 153.146 19.86C154 19.86 154.64 20.04 155.066 20.4C155.506 20.7467 155.726 21.26 155.726 21.94L155.706 22.26C156.226 21.5533 156.806 20.98 157.446 20.54C158.1 20.0867 158.8 19.86 159.546 19.86C161.333 19.86 162.226 20.62 162.226 22.14C162.226 22.4867 162.193 22.8133 162.126 23.12L161.126 27.98C161.073 28.2467 161.046 28.44 161.046 28.56C161.046 28.8933 161.153 29.06 161.366 29.06C161.606 29.06 161.893 28.8333 162.226 28.38C162.573 27.9133 162.853 27.42 163.066 26.9L163.546 27.14Z" fill="black"/>
<rect x="1" y="1" width="178" height="44" stroke="black" stroke-width="2"/>
</svg>
