<svg width="32" height="32" viewBox="0 0 32 32" fill="none" xmlns="http://www.w3.org/2000/svg">
<rect x="1" y="1" width="30" height="30" fill="white"/>
<path d="M6.212 21.76C6.788 21.5573 7.23067 21.4347 7.54 21.392L9.572 11.392C9.16667 11.3173 8.77733 11.2107 8.404 11.072L8.452 10.8H13.252C14.3613 10.8 15.1667 10.96 15.668 11.28C16.18 11.5893 16.436 12.0693 16.436 12.72C16.436 12.9013 16.4093 13.136 16.356 13.424C16.2493 14.0213 15.9773 14.5653 15.54 15.056C15.1133 15.536 14.5533 15.8613 13.86 16.032V16.128C14.532 16.2667 15.0173 16.5387 15.316 16.944C15.6147 17.3387 15.764 17.7973 15.764 18.32C15.764 18.4587 15.7427 18.656 15.7 18.912C15.4867 19.9467 15.044 20.72 14.372 21.232C13.7107 21.744 12.74 22 11.46 22H6.18L6.212 21.76ZM11.924 15.76C12.532 15.76 13.0333 15.5627 13.428 15.168C13.8333 14.7733 14.1053 14.2293 14.244 13.536C14.308 13.248 14.34 12.9973 14.34 12.784C14.34 12.3573 14.2173 12.0427 13.972 11.84C13.7373 11.6373 13.364 11.536 12.852 11.536H11.62L10.756 15.76H11.924ZM11.332 21.296C12.548 21.296 13.3213 20.4747 13.652 18.832C13.7053 18.5333 13.732 18.2827 13.732 18.08C13.732 17.5573 13.5933 17.1627 13.316 16.896C13.0493 16.6187 12.6493 16.48 12.116 16.48H10.612L9.636 21.296H11.332ZM19.7395 22.16C18.8968 22.16 18.1662 22.0213 17.5475 21.744C16.9288 21.4667 16.4915 21.104 16.2355 20.656L16.9075 18.368H17.4035C17.4142 18.4427 17.4195 18.5653 17.4195 18.736C17.4195 19.248 17.3715 19.8187 17.2755 20.448C17.4782 20.736 17.7555 20.9707 18.1075 21.152C18.4702 21.3227 18.8862 21.408 19.3555 21.408C20.0488 21.408 20.6728 21.2213 21.2275 20.848C21.7928 20.4747 22.1448 19.936 22.2835 19.232C22.3155 19.0827 22.3315 18.944 22.3315 18.816C22.3315 18.4747 22.2355 18.1813 22.0435 17.936C21.8622 17.6907 21.6328 17.488 21.3555 17.328C21.0782 17.168 20.7048 16.9813 20.2355 16.768C19.7022 16.5227 19.2702 16.304 18.9395 16.112C18.6195 15.9093 18.3422 15.648 18.1075 15.328C17.8835 14.9973 17.7715 14.5973 17.7715 14.128C17.7715 13.9467 17.7982 13.7227 17.8515 13.456C18.0435 12.5387 18.5395 11.84 19.3395 11.36C20.1395 10.88 21.1368 10.64 22.3315 10.64C23.1208 10.64 23.7715 10.736 24.2835 10.928C24.8062 11.1093 25.2222 11.4027 25.5315 11.808L24.9235 13.888H24.4115C24.3902 13.6533 24.3795 13.4507 24.3795 13.28C24.3795 12.8853 24.4115 12.464 24.4755 12.016C24.2835 11.8133 24.0275 11.6587 23.7075 11.552C23.3875 11.4453 23.0302 11.392 22.6355 11.392C21.9315 11.392 21.3502 11.536 20.8915 11.824C20.4435 12.112 20.1608 12.544 20.0435 13.12C20.0222 13.248 20.0115 13.3387 20.0115 13.392C20.0115 13.6587 20.0915 13.8933 20.2515 14.096C20.4115 14.288 20.6088 14.4533 20.8435 14.592C21.0888 14.72 21.4302 14.8907 21.8675 15.104C22.4435 15.3707 22.9075 15.6213 23.2595 15.856C23.6222 16.08 23.9262 16.3787 24.1715 16.752C24.4275 17.1253 24.5555 17.584 24.5555 18.128C24.5555 18.384 24.5235 18.656 24.4595 18.944C24.3208 19.6053 24.0222 20.1813 23.5635 20.672C23.1155 21.152 22.5555 21.52 21.8835 21.776C21.2222 22.032 20.5075 22.16 19.7395 22.16Z" fill="black"/>
<rect x="1" y="1" width="30" height="30" stroke="black" stroke-width="2"/>
</svg>
