<svg width="848" height="427" viewBox="0 0 848 427" fill="none" xmlns="http://www.w3.org/2000/svg">
<path d="M844.499 421.307H579.371V224.887C579.371 218.624 576.526 212.931 571.403 208.946L566.85 205.53C565.712 204.96 564.574 204.96 563.436 205.53L558.883 208.946C558.313 209.515 557.175 210.084 556.606 211.223V197.559C556.606 191.296 553.191 185.603 548.069 182.187L539.532 177.632V167.954C539.532 166.246 538.394 165.107 536.687 165.107C534.979 165.107 533.841 166.246 533.841 167.954V177.632L525.304 182.187C524.166 182.756 523.028 183.895 522.458 184.464V167.384C522.458 161.122 519.613 155.428 514.491 151.443L509.938 148.027C508.799 147.458 507.661 147.458 506.523 148.027L501.97 151.443C501.401 152.012 500.262 152.582 499.693 153.72V150.304C499.693 144.042 496.848 138.348 491.726 134.363L487.172 130.947C486.034 130.378 484.896 130.378 483.758 130.947L479.205 134.363C478.066 134.932 477.497 136.071 476.359 137.21C475.221 132.086 472.375 127.531 467.822 125.254L459.285 120.699V111.02C459.285 109.312 458.147 108.174 456.44 108.174C454.732 108.174 453.594 109.312 453.594 111.02V120.699L445.057 125.254C443.919 125.823 442.781 126.962 441.642 127.531C441.642 121.268 437.658 115.005 432.536 111.02L430.26 108.173C429.122 107.604 427.983 107.604 426.845 108.173L422.292 111.589C420.585 112.728 419.446 114.436 418.308 115.575C416.601 112.159 413.186 109.312 410.34 107.604L402.942 103.619V93.9401C402.942 92.2321 401.803 91.0934 400.096 91.0934C398.389 91.0934 397.25 92.2321 397.25 93.9401V103.619L389.852 108.173C386.437 109.881 384.161 112.728 383.022 116.144C381.884 114.436 380.746 113.297 379.038 112.158L374.485 108.742C373.347 108.173 372.209 108.173 371.071 108.742L366.518 112.158C361.396 115.574 358.55 121.837 358.55 128.1C357.412 126.961 356.843 126.392 355.135 125.822L346.598 121.268V111.589C346.598 109.881 345.46 108.742 343.753 108.742C342.045 108.742 340.907 109.881 340.907 111.589V121.268L332.37 125.822C327.817 128.669 324.972 132.654 323.833 137.778C323.264 136.64 322.126 136.07 320.988 134.932L316.435 131.516C315.296 130.946 314.158 130.946 313.02 131.516L308.467 134.932C303.345 138.917 300.499 144.61 300.499 150.873V154.289L298.223 152.012L293.67 148.596C292.531 148.026 291.393 148.026 290.255 148.596L285.702 152.012C280.58 155.997 277.734 161.69 277.734 167.953L275.458 184.464C274.319 183.326 273.75 182.756 272.612 182.187L266.352 178.202V168.523C266.352 166.815 265.214 165.676 263.506 165.676C261.799 165.676 260.661 166.815 260.661 168.523V178.202L252.124 182.756C246.433 185.603 243.587 191.866 243.587 198.128L243.587 211.223L241.311 208.946L236.758 205.53C235.619 204.96 234.481 204.96 233.343 205.53L228.79 208.946C223.668 212.931 220.822 218.624 220.822 224.887V421.307H3.70733C1.99995 421.307 0.861694 422.446 0.861694 424.154C0.861694 425.862 1.99995 427 3.70733 427H844.499C846.207 427 847.345 425.862 847.345 424.154C847.345 422.446 846.207 421.307 844.499 421.307Z" fill="white"/>
<path d="M844.499 421.307H579.371V224.887C579.371 218.624 576.526 212.931 571.403 208.946L566.85 205.53C565.712 204.96 564.574 204.96 563.436 205.53L558.883 208.946C558.313 209.515 557.175 210.084 556.606 211.223V197.559C556.606 191.296 553.191 185.603 548.069 182.187L539.532 177.632V167.954C539.532 166.246 538.394 165.107 536.687 165.107C534.979 165.107 533.841 166.246 533.841 167.954V177.632L525.304 182.187C524.166 182.756 523.028 183.895 522.458 184.464V167.384C522.458 161.122 519.613 155.428 514.491 151.443L509.938 148.027C508.799 147.458 507.661 147.458 506.523 148.027L501.97 151.443C501.401 152.012 500.262 152.582 499.693 153.72V150.304C499.693 144.042 496.848 138.348 491.726 134.363L487.172 130.947C486.034 130.378 484.896 130.378 483.758 130.947L479.205 134.363C478.066 134.932 477.497 136.071 476.359 137.21C475.221 132.086 472.375 127.531 467.822 125.254L459.285 120.699V111.02C459.285 109.312 458.147 108.174 456.44 108.174C454.732 108.174 453.594 109.312 453.594 111.02V120.699L445.057 125.254C443.919 125.823 442.781 126.962 441.642 127.531C441.642 121.268 437.658 115.005 432.536 111.02L430.26 108.173C429.122 107.604 427.983 107.604 426.845 108.173L422.292 111.589C420.585 112.728 419.446 114.436 418.308 115.575C416.601 112.159 413.186 109.312 410.34 107.604L402.942 103.619V93.9401C402.942 92.2321 401.803 91.0934 400.096 91.0934C398.389 91.0934 397.25 92.2321 397.25 93.9401V103.619L389.852 108.173C386.437 109.881 384.161 112.728 383.022 116.144C381.884 114.436 380.746 113.297 379.038 112.158L374.485 108.742C373.347 108.173 372.209 108.173 371.071 108.742L366.518 112.158C361.396 115.574 358.55 121.837 358.55 128.1C357.412 126.961 356.843 126.392 355.135 125.822L346.598 121.268V111.589C346.598 109.881 345.46 108.742 343.753 108.742C342.045 108.742 340.907 109.881 340.907 111.589V121.268L332.37 125.822C327.817 128.669 324.972 132.654 323.833 137.778C323.264 136.64 322.126 136.07 320.988 134.932L316.435 131.516C315.296 130.946 314.158 130.946 313.02 131.516L308.467 134.932C303.345 138.917 300.499 144.61 300.499 150.873V154.289L298.223 152.012L293.67 148.596C292.531 148.026 291.393 148.026 290.255 148.596L285.702 152.012C280.58 155.997 277.734 161.69 277.734 167.953L275.458 184.464C274.319 183.326 273.75 182.756 272.612 182.187L266.352 178.202V168.523C266.352 166.815 265.214 165.676 263.506 165.676C261.799 165.676 260.661 166.815 260.661 168.523V178.202L252.124 182.756C246.433 185.603 243.587 191.866 243.587 198.128L243.587 211.223L241.311 208.946L236.758 205.53C235.619 204.96 234.481 204.96 233.343 205.53L228.79 208.946C223.668 212.931 220.822 218.624 220.822 224.887V421.307H3.70733C1.99995 421.307 0.861694 422.446 0.861694 424.154C0.861694 425.862 1.99995 427 3.70733 427H844.499C846.207 427 847.345 425.862 847.345 424.154C847.345 422.446 846.207 421.307 844.499 421.307ZM226.513 264.74C226.513 260.186 228.79 256.2 232.204 253.354L235.05 251.076L237.896 253.354C241.31 256.2 243.587 260.186 243.587 264.74V290.93L241.31 288.652L236.757 285.236C235.619 284.667 234.481 284.667 233.343 285.236L228.79 288.652C228.22 289.222 227.082 289.791 226.513 290.93V264.74ZM249.847 220.332C249.847 216.347 251.555 212.362 254.969 210.084L263.506 205.53L272.043 210.084C275.458 212.362 277.734 216.347 277.734 220.332V247.66C276.596 246.522 276.027 245.952 274.889 245.383L265.214 239.69C264.075 239.12 263.506 239.12 262.368 239.69L252.693 245.383C251.555 245.952 250.416 247.091 249.847 247.66V220.332ZM249.847 260.186C249.847 256.2 251.555 252.215 254.969 249.938L263.506 245.383L272.043 249.938C275.458 252.215 277.734 256.2 277.734 260.186V287.514C276.596 286.375 276.027 285.806 274.889 285.236L265.214 279.543C264.075 278.974 263.506 278.974 262.368 279.543L252.693 285.236C251.555 285.806 250.416 286.944 249.847 287.514V260.186ZM522.458 300.039C522.458 296.054 524.735 292.068 528.15 289.791L536.687 285.236L545.224 289.791C548.638 292.068 550.915 296.054 550.915 300.039V330.214H522.458V300.039ZM550.915 287.514C549.777 286.375 549.207 285.806 548.069 285.236L538.394 279.543C537.256 278.974 536.687 278.974 535.548 279.543L525.873 285.236C524.735 285.806 523.597 286.944 523.028 287.514V260.186C523.028 256.2 525.304 252.215 528.719 249.938L537.256 245.383L545.793 249.938C549.207 252.215 550.915 256.2 550.915 260.186V287.514ZM516.767 279.543L514.491 277.266L509.938 273.85C508.799 273.28 507.661 273.28 506.523 273.85L501.97 277.266C501.401 277.835 500.262 278.404 499.693 279.543V253.354C499.693 248.799 501.97 244.814 505.385 241.967L508.23 239.69L511.076 241.967C514.491 244.814 516.767 248.799 516.767 253.354V279.543ZM494.002 279.543L491.726 277.266L487.172 273.85C486.034 273.28 484.896 273.28 483.758 273.85L479.205 277.266C478.636 277.835 477.497 278.404 476.928 279.543V247.66C476.928 243.106 479.205 239.12 482.619 236.274L485.465 233.996L488.311 236.274C491.726 239.12 494.002 243.106 494.002 247.66V279.543ZM442.781 330.214V294.346C442.781 290.36 445.057 286.375 448.472 284.098L457.009 279.543L465.546 284.098C468.96 286.375 471.237 290.36 471.237 294.346V330.214H442.781ZM471.237 281.82C470.099 280.682 469.53 280.112 468.391 279.543L458.716 273.85C457.578 273.28 457.009 273.28 455.87 273.85L446.195 279.543C445.057 280.112 443.919 281.251 443.35 281.82V243.106C443.35 239.12 445.626 235.135 449.041 232.858L457.578 228.303L466.115 232.858C469.53 235.135 471.237 239.12 471.237 243.106V281.82ZM437.089 279.543L434.813 277.266L430.26 273.85C429.121 273.28 427.983 273.28 426.845 273.85L422.292 277.266C421.723 277.835 420.585 278.404 420.015 279.543V236.274C420.015 231.719 422.292 227.734 425.707 224.887L428.552 222.61L431.398 224.887C434.813 227.734 437.089 231.719 437.089 236.274V279.543ZM385.868 330.214V294.346C385.868 290.36 388.144 286.375 391.559 284.098L400.096 279.543L408.633 284.098C412.048 286.375 414.324 290.36 414.324 294.346V330.214H385.868ZM414.324 281.82C413.186 280.682 412.617 280.112 411.479 279.543L401.803 273.85C400.665 273.28 400.096 273.28 398.958 273.85L389.283 279.543C388.144 280.112 387.006 281.251 386.437 281.82V237.412C386.437 233.427 388.713 229.442 392.128 227.164L400.665 222.61L409.202 227.164C412.617 229.442 414.324 233.658 414.324 237.643V281.82ZM380.177 279.543L377.9 277.266L373.347 273.85C372.209 273.28 371.071 273.28 369.932 273.85L365.379 277.266C364.81 277.835 363.672 278.404 363.103 279.543V236.274C363.103 231.719 365.379 227.734 368.794 224.887L371.64 222.61L374.485 224.887C377.9 227.734 380.177 231.719 380.177 236.274V279.543ZM328.955 330.214V294.346C328.955 290.36 331.232 286.375 334.647 284.098L343.184 279.543L351.72 284.098C355.135 286.375 357.412 290.36 357.412 294.346V330.214H328.955ZM357.412 281.82C356.273 280.682 355.704 280.112 354.566 279.543L344.891 273.85C343.753 273.28 343.184 273.28 342.045 273.85L332.37 279.543C331.232 280.112 330.094 281.251 329.525 281.82V243.106C329.525 239.12 331.801 235.135 335.216 232.858L343.753 228.303L352.29 232.858C355.704 235.135 357.412 239.12 357.412 243.106V281.82ZM323.264 279.543L320.988 277.266L316.435 273.85C315.296 273.28 314.158 273.28 313.02 273.85L308.467 277.266C307.898 277.835 306.759 278.404 306.19 279.543V247.66C306.19 243.106 308.467 239.12 311.882 236.274L314.727 233.996L317.573 236.274C320.988 239.12 323.264 243.106 323.264 247.66V279.543ZM300.499 279.543L298.223 277.266L293.67 273.85C292.531 273.28 291.393 273.28 290.255 273.85L285.702 277.266C285.133 277.835 283.994 278.404 283.425 279.543V253.354C283.425 248.799 285.702 244.814 289.117 241.967L291.962 239.69L294.808 241.967C298.223 244.814 300.499 248.799 300.499 253.354V279.543ZM249.278 300.039C249.278 296.054 251.555 292.068 254.969 289.791L263.506 285.236L272.043 289.791C275.458 292.068 277.734 296.054 277.734 300.039V330.214H249.278V300.039ZM249.278 335.907H277.734V353.556C276.027 352.987 274.889 352.987 273.181 352.987C271.474 349.571 267.49 347.294 263.506 347.294C259.522 347.294 255.539 349.571 253.831 352.987C252.124 352.418 250.986 352.987 249.278 353.556V335.907ZM283.425 293.207C283.425 288.652 285.702 284.667 289.117 281.82L291.962 279.543L294.808 281.82C298.223 284.667 300.499 288.652 300.499 293.207V330.214H283.425V293.207ZM306.19 293.207C306.19 288.652 308.467 284.667 311.882 281.82L314.727 279.543L317.573 281.82C320.988 284.667 323.264 288.652 323.264 293.207V330.214H306.19V293.207ZM328.955 335.907H357.412V353.556C355.704 352.987 354.566 352.987 352.859 352.987C351.151 349.571 347.167 347.294 343.184 347.294C339.2 347.294 335.216 349.571 333.508 352.987C331.801 352.418 330.663 352.987 328.955 353.556V335.907ZM363.103 293.207C363.103 288.652 365.379 284.667 368.794 281.82L371.64 279.543L374.485 281.82C377.9 284.667 380.177 288.652 380.177 293.207V330.214H363.103V293.207ZM385.868 335.907H414.324V353.556C412.617 352.987 411.479 352.987 409.771 352.987C408.064 349.571 404.08 347.294 400.096 347.294C396.112 347.294 392.128 349.571 390.421 352.987C388.713 352.418 387.575 352.987 385.868 353.556V335.907ZM420.015 293.207C420.015 288.652 422.292 284.667 425.707 281.82L428.552 279.543L431.398 281.82C434.813 284.667 437.089 288.652 437.089 293.207V330.214H420.015V293.207ZM442.781 335.907H471.237V353.556C469.53 352.987 468.391 352.987 466.684 352.987C464.977 349.571 460.993 347.294 457.009 347.294C453.025 347.294 449.041 349.571 447.334 352.987C445.626 352.418 444.488 352.987 442.781 353.556V335.907ZM476.928 293.207C476.928 288.652 479.205 284.667 482.619 281.82L485.465 279.543L488.311 281.82C491.726 284.667 494.002 288.652 494.002 293.207V330.214H476.928V293.207ZM499.693 293.207C499.693 288.652 501.97 284.667 505.385 281.82L508.23 279.543L511.076 281.82C514.491 284.667 516.767 288.652 516.767 293.207V330.214H499.693V293.207ZM522.458 335.907H550.915V353.556C549.207 352.987 548.069 352.987 546.362 352.987C544.654 349.571 540.671 347.294 536.687 347.294C532.703 347.294 528.719 349.571 527.011 352.987C525.304 352.418 524.166 352.987 522.458 353.556V335.907ZM556.606 304.594C556.606 300.039 558.883 296.054 562.297 293.207L565.143 290.93L567.989 293.207C571.403 296.054 573.68 300.039 573.68 304.594V330.214H556.606V304.594ZM573.68 290.93L571.403 288.652L566.85 285.236C565.712 284.667 564.574 284.667 563.436 285.236L558.883 288.652C558.313 289.222 557.175 289.791 556.606 290.93V264.74C556.606 260.186 558.883 256.2 562.297 253.354L565.143 251.076L567.989 253.354C571.403 256.2 573.68 260.186 573.68 264.74V290.93ZM550.915 247.66C549.777 246.522 549.207 245.952 548.069 245.383L538.394 239.69C537.256 239.12 536.687 239.12 535.548 239.69L525.873 245.383C524.735 245.952 523.597 247.091 523.028 247.66V220.332C523.028 216.347 525.304 212.362 528.719 210.084L537.256 205.53L545.793 210.084C549.207 212.362 550.915 216.347 550.915 220.332V247.66ZM516.767 239.69L514.491 237.412L509.938 233.996C508.799 233.427 507.661 233.427 506.523 233.996L501.97 237.412C501.401 237.982 500.262 238.551 499.693 239.69V207.807C499.693 203.252 501.97 199.267 505.385 196.42L508.23 194.143L511.076 196.42C514.491 199.267 516.767 203.252 516.767 207.807V239.69ZM494.002 233.996L491.726 231.719L487.172 228.303C486.034 227.734 484.896 227.734 483.758 228.303L479.205 231.719C478.636 232.288 477.497 232.858 476.928 233.996V202.114C476.928 197.559 479.205 193.574 482.619 190.727L485.465 188.45L488.311 190.727C491.726 193.574 494.002 197.559 494.002 202.114V233.996ZM471.237 230.58C470.099 229.442 469.53 228.872 468.391 228.303L458.716 222.61C457.578 222.04 457.009 222.04 455.87 222.61L446.195 228.303C445.057 228.872 443.919 230.011 443.35 230.58V191.866C443.35 187.88 445.626 183.895 449.041 181.618L457.578 177.063L466.115 181.618C469.53 183.895 471.237 187.88 471.237 191.866V230.58ZM437.089 222.61L434.813 220.332L430.26 216.916C429.121 216.347 427.983 216.347 426.845 216.916L422.292 220.332C421.723 220.902 420.585 221.471 420.015 222.61V185.034C420.015 180.479 422.292 176.494 425.707 173.647L428.552 171.37L431.398 173.647C434.813 176.494 437.089 180.479 437.089 185.034V222.61ZM414.324 224.887C413.186 223.748 412.617 223.179 411.479 222.61L401.803 216.916C400.665 216.347 400.096 216.347 398.958 216.916L389.283 222.61C388.144 223.179 387.006 224.318 386.437 224.887V180.479C386.437 176.494 388.713 172.508 392.128 170.231L400.665 165.676L409.202 170.231C412.617 172.508 414.324 176.494 414.324 180.479V224.887ZM380.177 222.61L377.9 220.332L373.347 216.916C372.209 216.347 371.071 216.347 369.932 216.916L365.379 220.332C364.81 220.902 363.672 221.471 363.103 222.61V185.034C363.103 180.479 365.379 176.494 368.794 173.647L371.64 171.37L374.485 173.647C377.9 176.494 380.177 180.479 380.177 185.034V222.61ZM357.412 230.58C356.273 229.442 355.704 228.872 354.566 228.303L344.891 222.61C343.753 222.04 343.184 222.04 342.045 222.61L332.37 228.303C331.232 228.872 330.094 230.011 329.525 230.58V191.866C329.525 187.88 331.801 183.895 335.216 181.618L343.753 177.063L352.29 181.618C355.704 183.895 357.412 187.88 357.412 191.866V230.58ZM323.264 233.996L320.988 231.719L316.435 228.303C315.296 227.734 314.158 227.734 313.02 228.303L308.467 231.719C307.898 232.288 306.759 232.858 306.19 233.996V202.114C306.19 197.559 308.467 193.574 311.882 190.727L314.727 188.45L317.573 190.727C320.988 193.574 323.264 197.559 323.264 202.114V233.996ZM300.499 239.69L298.223 237.412L293.67 233.996C292.531 233.427 291.393 233.427 290.255 233.996L285.702 237.412C285.133 237.982 283.994 238.551 283.425 239.69V207.807C283.425 203.252 285.702 199.267 289.117 196.42L291.962 194.143L294.808 196.42C298.223 199.267 300.499 203.252 300.499 207.807V239.69ZM226.513 304.594C226.513 300.039 228.79 296.054 232.204 293.207L235.05 290.93L237.896 293.207C241.31 296.054 243.587 300.039 243.587 304.594V330.214H226.513V304.594ZM249.278 421.307V361.527C249.278 359.819 250.416 358.68 252.124 358.68C252.693 358.68 253.262 358.68 253.831 359.25C254.4 359.819 255.539 359.819 256.677 359.25C257.815 358.68 258.384 358.111 258.384 356.972C258.953 354.126 261.23 352.418 264.075 352.418C266.921 352.418 269.197 354.126 269.766 356.972C269.766 358.111 270.336 358.68 271.474 359.25C272.612 359.819 273.181 359.25 274.319 359.25C274.889 358.68 275.458 358.68 276.027 358.68C277.734 358.68 278.872 359.819 278.872 361.527V421.307H249.278ZM283.425 421.307V335.907H300.499V421.307H283.425ZM306.19 421.307V335.907H323.264V421.307H306.19ZM328.955 421.307V361.527C328.955 359.819 330.094 358.68 331.801 358.68C332.37 358.68 332.939 358.68 333.508 359.25C334.078 359.819 335.216 359.819 336.354 359.25C337.492 358.68 338.061 358.111 338.061 356.972C338.631 354.126 340.907 352.418 343.753 352.418C346.598 352.418 348.875 354.126 349.444 356.972C349.444 358.111 350.013 358.68 351.151 359.25C351.72 359.819 352.859 359.25 353.997 359.25C354.566 358.68 355.135 358.68 355.704 358.68C357.412 358.68 358.55 359.819 358.55 361.527V421.307H328.955ZM363.103 421.307V335.907H380.177V421.307H363.103ZM385.868 421.307V361.527C385.868 359.819 387.006 358.68 388.713 358.68C389.283 358.68 389.852 358.68 390.421 359.25C390.99 359.819 392.128 359.819 393.266 359.25C394.405 358.68 394.974 358.111 394.974 356.972C395.543 354.126 397.819 352.418 400.665 352.418C403.511 352.418 405.787 354.126 406.356 356.972C406.356 358.111 406.926 358.68 408.064 359.25C408.633 359.819 409.771 359.25 410.909 359.25C411.479 358.68 412.048 358.68 412.617 358.68C414.324 358.68 415.462 359.819 415.462 361.527V421.307H385.868ZM420.015 421.307V335.907H437.089V421.307H420.015ZM442.781 421.307V361.527C442.781 359.819 443.919 358.68 445.626 358.68C446.195 358.68 446.764 358.68 447.334 359.25C447.903 359.819 449.041 359.819 450.179 359.25C451.317 358.68 451.887 358.111 451.887 356.972C452.456 354.126 454.732 352.418 457.578 352.418C460.424 352.418 462.7 354.126 463.269 356.972C463.269 358.111 463.838 358.68 464.977 359.25C465.546 359.819 466.684 359.25 467.822 359.25C468.391 358.68 468.96 358.68 469.53 358.68C471.237 358.68 472.375 359.819 472.375 361.527V421.307H442.781ZM476.928 421.307V335.907H494.002V421.307H476.928ZM499.693 421.307V335.907H516.767V421.307H499.693ZM522.458 421.307V361.527C522.458 359.819 523.597 358.68 525.304 358.68C525.873 358.68 526.442 358.68 527.011 359.25C527.581 359.819 528.719 359.819 529.857 359.25C530.995 358.68 531.564 358.111 531.564 356.972C532.134 354.126 534.41 352.418 537.256 352.418C540.101 352.418 542.378 354.126 542.947 356.972C542.947 358.111 543.516 358.68 544.654 359.25C545.223 359.819 546.362 359.25 547.5 359.25C548.069 358.68 548.638 358.68 549.207 358.68C550.915 358.68 552.053 359.819 552.053 361.527V421.307H522.458ZM556.606 421.307V335.907H573.68V421.307H556.606ZM562.297 213.5L565.143 211.223L567.989 213.5C571.403 216.347 573.68 220.332 573.68 224.887V251.076L571.403 248.799L566.85 245.383C565.712 244.814 564.574 244.814 563.436 245.383L558.883 248.799C558.313 249.368 557.175 249.938 556.606 251.076V224.887C556.606 220.332 558.883 216.347 562.297 213.5ZM528.15 187.311L536.687 182.756L545.224 187.311C548.638 189.588 550.915 193.574 550.915 197.559V207.807C549.777 206.668 549.207 206.099 548.069 205.53L538.394 199.836C537.256 199.267 536.687 199.267 535.548 199.836L525.873 205.53C524.735 206.099 523.597 207.238 523.028 207.807V197.559C522.458 193.574 524.735 189.588 528.15 187.311ZM505.385 156.567L508.23 154.29L511.076 156.567C514.491 159.414 516.767 163.399 516.767 167.954V194.143L514.491 191.866L509.938 188.45C508.799 187.88 507.661 187.88 506.523 188.45L501.97 191.866C501.401 192.435 500.262 193.004 499.693 194.143V167.954C499.693 163.399 501.97 159.414 505.385 156.567ZM482.619 139.487L485.465 137.21L488.311 139.487C491.726 142.334 494.002 146.319 494.002 150.874V188.45L491.726 186.172L487.172 182.756C486.034 182.187 484.896 182.187 483.758 182.756L479.205 186.172C478.636 186.742 477.497 187.311 476.928 188.45V150.874C476.928 146.319 479.205 142.334 482.619 139.487ZM448.472 130.378L457.009 125.823L465.546 130.378C468.96 132.655 471.237 136.64 471.237 140.626V179.34C470.099 178.202 469.53 177.632 468.391 177.063L458.716 171.37C457.578 170.8 457.009 170.8 455.87 171.37L446.195 177.063C445.057 177.632 443.919 178.771 443.35 179.34V140.626C442.781 136.64 445.057 132.655 448.472 130.378ZM425.707 116.714L428.552 114.436L431.398 116.714C434.813 119.56 437.089 123.546 437.089 128.1V171.37L434.813 169.092L430.26 165.676C429.121 165.107 427.983 165.107 426.845 165.676L422.292 169.092C421.723 169.662 420.585 170.231 420.015 171.37V128.1C420.015 123.546 422.292 119.56 425.707 116.714ZM386.437 123.546C386.437 119.56 388.144 115.575 391.559 113.298L400.096 108.743L408.633 113.298C412.048 115.575 414.324 119.56 414.324 123.546V167.954C413.186 166.815 412.617 166.246 411.479 165.676L401.803 159.983C400.665 159.414 400.096 159.414 398.958 159.983L389.283 165.676C388.144 166.246 387.006 167.384 386.437 167.954V123.546ZM363.103 128.1C363.103 123.546 365.379 119.56 368.794 116.714L371.64 114.436L374.485 116.714C377.9 119.56 380.177 123.546 380.177 128.1V171.37L377.9 169.092L373.347 165.676C372.209 165.107 371.071 165.107 369.932 165.676L365.379 169.092C364.81 169.662 363.672 170.231 363.103 171.37V128.1ZM329.525 140.626C329.525 136.64 331.232 132.655 334.647 130.378L343.184 125.823L351.72 130.378C355.135 132.655 357.412 136.64 357.412 140.626V179.34C356.273 178.202 355.704 177.632 354.566 177.063L344.891 171.37C343.753 170.8 343.184 170.8 342.045 171.37L332.37 177.063C331.232 177.632 330.094 178.771 329.525 179.34V140.626ZM306.19 150.874C306.19 146.319 308.467 142.334 311.882 139.487L314.727 137.21L317.573 139.487C320.988 142.334 323.264 146.319 323.264 150.874V188.45L320.988 186.172L316.435 182.756C315.296 182.187 314.158 182.187 313.02 182.756L308.467 186.172C307.898 186.742 306.759 187.311 306.19 188.45V150.874ZM289.117 156.567L291.962 154.29L294.808 156.567C298.223 159.414 300.499 163.399 300.499 167.954V194.143L298.223 191.866L293.67 188.45C292.531 187.88 291.393 187.88 290.255 188.45L285.702 191.866C285.133 192.435 283.994 193.004 283.425 194.143V167.954C283.425 163.399 285.702 159.414 289.117 156.567ZM254.969 187.311L263.506 182.756L272.043 187.311C275.458 189.588 277.734 193.574 277.734 197.559V207.807C276.596 206.668 276.027 206.099 274.889 205.53L265.214 199.836C264.075 199.267 263.506 199.267 262.368 199.836L252.693 205.53C251.555 206.099 250.416 207.238 249.847 207.807V197.559C249.847 193.573 251.555 189.588 254.969 187.311ZM232.204 213.5L235.05 211.223L237.896 213.5C241.31 216.347 243.587 220.332 243.587 224.887V251.076L241.31 248.799L236.757 245.383C235.619 244.814 234.481 244.814 233.343 245.383L228.79 248.799C228.22 249.368 227.082 249.938 226.513 251.076V224.887C226.513 220.332 228.79 216.347 232.204 213.5ZM226.513 335.907H243.587V421.307H226.513V335.907Z" fill="black"/>
<path d="M258.953 233.427H270.336C272.043 233.427 273.181 232.288 273.181 230.58V219.763C273.181 216.916 271.474 214.639 269.197 212.931L265.783 211.223C264.644 210.654 264.075 210.654 262.937 211.223L260.092 212.931C257.815 214.07 256.108 216.916 256.108 219.763V230.58C256.108 232.288 257.246 233.427 258.953 233.427ZM261.799 219.763C261.799 219.194 262.368 218.624 262.937 218.055L264.644 216.916L266.352 218.055C266.921 218.624 267.49 219.194 267.49 219.763V227.734H261.799V219.763ZM405.787 286.944L402.373 285.236C401.234 284.667 400.665 284.667 399.527 285.236L396.681 286.944C394.405 288.083 392.697 290.93 392.697 293.776V304.594C392.697 306.302 393.836 307.44 395.543 307.44H406.926C408.633 307.44 409.771 306.302 409.771 304.594V293.776C409.771 290.93 408.064 288.083 405.787 286.944ZM404.08 301.747H398.389V293.776C398.389 293.207 398.958 292.638 399.527 292.068L401.234 290.93L402.942 292.068C403.511 292.638 404.08 293.207 404.08 293.776V301.747ZM405.787 173.078L402.373 171.37C401.234 170.8 400.665 170.8 399.527 171.37L396.681 173.078C394.405 174.216 392.697 177.063 392.697 179.91V190.727C392.697 192.435 393.836 193.574 395.543 193.574H406.926C408.633 193.574 409.771 192.435 409.771 190.727V179.91C409.771 177.063 408.064 174.216 405.787 173.078ZM404.08 187.88H398.389V179.91C398.389 179.34 398.958 178.771 399.527 178.202L401.234 177.063L402.942 178.202C403.511 178.771 404.08 179.34 404.08 179.91V187.88ZM395.543 136.64H406.926C408.633 136.64 409.771 135.502 409.771 133.794V122.976C409.771 120.13 408.064 117.852 405.787 116.144L402.373 114.436C401.234 113.867 400.665 113.867 399.527 114.436L396.681 116.144C394.405 117.283 392.697 120.13 392.697 122.976V133.794C392.697 135.502 393.836 136.64 395.543 136.64ZM398.389 122.976C398.389 122.407 398.958 121.838 399.527 121.268L401.234 120.13L402.942 121.268C403.511 121.838 404.08 122.407 404.08 122.976V130.947H398.389V122.976ZM452.456 153.72H463.838C465.546 153.72 466.684 152.582 466.684 150.874V140.056C466.684 137.21 464.977 134.932 462.7 133.224L459.285 131.516C458.147 130.947 457.578 130.947 456.44 131.516L453.594 133.224C451.318 134.363 449.61 137.21 449.61 140.056V150.874C449.61 152.582 450.748 153.72 452.456 153.72ZM455.301 140.056C455.301 139.487 455.871 138.918 456.44 138.348L458.147 137.21L459.854 138.348C460.424 138.918 460.993 139.487 460.993 140.056V148.027H455.301V140.056ZM462.7 184.464L459.285 182.756C458.147 182.187 457.578 182.187 456.44 182.756L453.594 184.464C451.318 185.603 449.61 188.449 449.61 191.296V202.114C449.61 203.822 450.748 204.96 452.456 204.96H463.838C465.546 204.96 466.684 203.822 466.684 202.114V191.296C466.684 188.449 464.977 185.603 462.7 184.464ZM460.993 199.267H455.301V191.296C455.301 190.727 455.871 190.158 456.44 189.588L458.147 188.45L459.854 189.588C460.424 190.158 460.993 190.727 460.993 191.296V199.267ZM462.7 286.944L459.285 285.236C458.147 284.667 457.578 284.667 456.44 285.236L453.594 286.944C451.318 288.083 449.61 290.93 449.61 293.776V304.594C449.61 306.302 450.748 307.44 452.456 307.44H463.838C465.546 307.44 466.684 306.302 466.684 304.594V293.776C466.684 290.93 464.977 288.083 462.7 286.944ZM460.993 301.747H455.301V293.776C455.301 293.207 455.871 292.638 456.44 292.068L458.147 290.93L459.854 292.068C460.424 292.638 460.993 293.207 460.993 293.776V301.747ZM338.631 153.72H350.013C351.72 153.72 352.859 152.582 352.859 150.874V140.056C352.859 137.21 351.151 134.932 348.875 133.224L345.46 131.516C344.322 130.947 343.753 130.947 342.614 131.516L339.769 133.224C337.492 134.363 335.785 137.21 335.785 140.056V150.874C335.785 152.582 336.923 153.72 338.631 153.72ZM341.476 140.056C341.476 139.487 342.045 138.918 342.614 138.348L344.322 137.21L346.029 138.348C346.598 138.918 347.167 139.487 347.167 140.056V148.027H341.476V140.056ZM348.875 184.464L345.46 182.756C344.322 182.187 343.753 182.187 342.614 182.756L339.769 184.464C337.492 185.603 335.785 188.449 335.785 191.296V202.114C335.785 203.822 336.923 204.96 338.631 204.96H350.013C351.72 204.96 352.859 203.822 352.859 202.114V191.296C352.859 188.449 351.151 185.603 348.875 184.464ZM347.167 199.267H341.476V191.296C341.476 190.727 342.045 190.158 342.614 189.588L344.322 188.45L346.029 189.588C346.598 190.158 347.167 190.727 347.167 191.296V199.267ZM348.875 286.944L345.46 285.236C344.322 284.667 343.753 284.667 342.614 285.236L339.769 286.944C337.492 288.083 335.785 290.93 335.785 293.776V304.594C335.785 306.302 336.923 307.44 338.631 307.44H350.013C351.72 307.44 352.859 306.302 352.859 304.594V293.776C352.859 290.93 351.151 288.083 348.875 286.944ZM347.167 301.747H341.476V293.776C341.476 293.207 342.045 292.638 342.614 292.068L344.322 290.93L346.029 292.068C346.598 292.638 347.167 293.207 347.167 293.776V301.747ZM542.378 292.638L538.963 290.93C537.825 290.36 537.256 290.36 536.118 290.93L533.272 292.638C530.995 293.776 529.288 296.623 529.288 299.469V310.287C529.288 311.995 530.426 313.134 532.134 313.134H543.516C545.224 313.134 546.362 311.995 546.362 310.287V299.469C546.362 296.623 544.655 293.776 542.378 292.638ZM540.671 307.44H534.979V299.469C534.979 298.9 535.548 298.331 536.118 297.762L537.825 296.623L539.532 297.762C540.101 298.331 540.671 298.9 540.671 299.469V307.44ZM542.378 212.931L538.963 211.223C537.825 210.654 537.256 210.654 536.118 211.223L533.272 212.931C530.995 214.07 529.288 216.916 529.288 219.763V230.58C529.288 232.288 530.426 233.427 532.134 233.427H543.516C545.224 233.427 546.362 232.288 546.362 230.58V219.763C546.362 216.916 544.655 214.07 542.378 212.931ZM540.671 227.734H534.979V219.763C534.979 219.194 535.548 218.624 536.118 218.055L537.825 216.916L539.532 218.055C540.101 218.624 540.671 219.194 540.671 219.763V227.734ZM350.013 370.067H338.631C336.923 370.067 335.785 371.206 335.785 372.914V395.687C335.785 397.395 336.923 398.534 338.631 398.534H350.013C351.72 398.534 352.859 397.395 352.859 395.687V372.914C352.859 371.206 351.72 370.067 350.013 370.067ZM347.167 392.84H341.476V375.76H347.167V392.84ZM270.336 370.067H258.953C257.246 370.067 256.108 371.206 256.108 372.914V395.687C256.108 397.395 257.246 398.534 258.953 398.534H270.336C272.043 398.534 273.181 397.395 273.181 395.687V372.914C273.181 371.206 272.043 370.067 270.336 370.067ZM267.49 392.84H261.799V375.76H267.49V392.84ZM406.926 370.067H395.543C393.836 370.067 392.697 371.206 392.697 372.914V395.687C392.697 397.395 393.836 398.534 395.543 398.534H406.926C408.633 398.534 409.771 397.395 409.771 395.687V372.914C409.771 371.206 408.633 370.067 406.926 370.067ZM404.08 392.84H398.389V375.76H404.08V392.84ZM463.838 370.067H452.456C450.748 370.067 449.61 371.206 449.61 372.914V395.687C449.61 397.395 450.748 398.534 452.456 398.534H463.838C465.546 398.534 466.684 397.395 466.684 395.687V372.914C466.684 371.206 465.546 370.067 463.838 370.067ZM460.993 392.84H455.301V375.76H460.993V392.84ZM543.516 370.067H532.134C530.426 370.067 529.288 371.206 529.288 372.914V395.687C529.288 397.395 530.426 398.534 532.134 398.534H543.516C545.224 398.534 546.362 397.395 546.362 395.687V372.914C546.362 371.206 545.224 370.067 543.516 370.067ZM540.671 392.84H534.979V375.76H540.671V392.84ZM269.197 292.638L265.783 290.93C264.644 290.36 264.075 290.36 262.937 290.93L260.092 292.638C257.815 293.776 256.108 296.623 256.108 299.469V310.287C256.108 311.995 257.246 313.134 258.953 313.134H270.336C272.043 313.134 273.181 311.995 273.181 310.287V299.469C273.181 296.623 271.474 293.776 269.197 292.638ZM267.49 307.44H261.799V299.469C261.799 298.9 262.368 298.331 262.937 297.762L264.644 296.623L266.352 297.762C266.921 298.331 267.49 298.9 267.49 299.469V307.44ZM258.953 273.28H270.336C272.043 273.28 273.181 272.142 273.181 270.434V259.616C273.181 256.77 271.474 254.492 269.197 252.784L265.783 251.076C264.644 250.507 264.075 250.507 262.937 251.076L260.092 252.784C257.815 253.923 256.108 256.77 256.108 259.616V270.434C256.108 272.142 257.246 273.28 258.953 273.28ZM261.799 259.616C261.799 259.047 262.368 258.478 262.937 257.908L264.644 256.77L266.352 257.908C266.921 258.478 267.49 259.047 267.49 259.616V267.587H261.799V259.616ZM405.787 230.011L402.373 228.303C401.234 227.734 400.665 227.734 399.527 228.303L396.681 230.011C394.405 231.15 392.697 233.996 392.697 236.843V247.66C392.697 249.368 393.836 250.507 395.543 250.507H406.926C408.633 250.507 409.771 249.368 409.771 247.66V236.843C409.771 233.996 408.064 231.15 405.787 230.011ZM404.08 244.814H398.389V236.843C398.389 236.274 398.958 235.704 399.527 235.135L401.234 233.996L402.942 235.135C403.511 235.704 404.08 236.274 404.08 236.843V244.814ZM462.7 235.704L459.285 233.996C458.147 233.427 457.578 233.427 456.44 233.996L453.594 235.704C451.318 236.843 449.61 239.69 449.61 242.536V253.354C449.61 255.062 450.748 256.2 452.456 256.2H463.838C465.546 256.2 466.684 255.062 466.684 253.354V242.536C466.684 239.69 464.977 236.843 462.7 235.704ZM460.993 250.507H455.301V242.536C455.301 241.967 455.871 241.398 456.44 240.828L458.147 239.69L459.854 240.828C460.424 241.398 460.993 241.967 460.993 242.536V250.507ZM348.875 235.704L345.46 233.996C344.322 233.427 343.753 233.427 342.614 233.996L339.769 235.704C337.492 236.843 335.785 239.69 335.785 242.536V253.354C335.785 255.062 336.923 256.2 338.631 256.2H350.013C351.72 256.2 352.859 255.062 352.859 253.354V242.536C352.859 239.69 351.151 236.843 348.875 235.704ZM347.167 250.507H341.476V242.536C341.476 241.967 342.045 241.398 342.614 240.828L344.322 239.69L346.029 240.828C346.598 241.398 347.167 241.967 347.167 242.536V250.507ZM542.378 252.784L538.963 251.076C537.825 250.507 537.256 250.507 536.118 251.076L533.272 252.784C530.995 253.923 529.288 256.77 529.288 259.616V270.434C529.288 272.142 530.426 273.28 532.134 273.28H543.516C545.224 273.28 546.362 272.142 546.362 270.434V259.616C546.362 256.77 544.655 253.923 542.378 252.784ZM540.671 267.587H534.979V259.616C534.979 259.047 535.548 258.478 536.118 257.908L537.825 256.77L539.532 257.908C540.101 258.478 540.671 259.047 540.671 259.616V267.587ZM429.691 182.187C427.983 182.187 426.845 183.326 426.845 185.034V207.807C426.845 209.515 427.983 210.654 429.691 210.654C431.398 210.654 432.536 209.515 432.536 207.807V185.034C432.536 183.326 431.398 182.187 429.691 182.187ZM429.691 233.427C427.983 233.427 426.845 234.566 426.845 236.274V264.74C426.845 266.448 427.983 267.587 429.691 267.587C431.398 267.587 432.536 266.448 432.536 264.74V236.274C432.536 234.566 431.398 233.427 429.691 233.427ZM372.778 182.187C371.071 182.187 369.932 183.326 369.932 185.034V207.807C369.932 209.515 371.071 210.654 372.778 210.654C374.485 210.654 375.624 209.515 375.624 207.807V185.034C375.624 183.326 374.485 182.187 372.778 182.187ZM429.691 159.414C431.398 159.414 432.536 158.275 432.536 156.567V128.1C432.536 126.392 431.398 125.254 429.691 125.254C427.983 125.254 426.845 126.392 426.845 128.1V156.567C426.845 158.275 427.983 159.414 429.691 159.414ZM372.778 159.414C374.485 159.414 375.624 158.275 375.624 156.567V128.1C375.624 126.392 374.485 125.254 372.778 125.254C371.071 125.254 369.932 126.392 369.932 128.1V156.567C369.932 158.275 371.071 159.414 372.778 159.414ZM372.778 233.427C371.071 233.427 369.932 234.566 369.932 236.274V264.74C369.932 266.448 371.071 267.587 372.778 267.587C374.485 267.587 375.624 266.448 375.624 264.74V236.274C375.624 234.566 374.485 233.427 372.778 233.427ZM315.866 199.267C314.158 199.267 313.02 200.406 313.02 202.114V219.194C313.02 220.902 314.158 222.04 315.866 222.04C317.573 222.04 318.711 220.902 318.711 219.194V202.114C318.711 200.406 317.573 199.267 315.866 199.267ZM315.866 244.814C314.158 244.814 313.02 245.952 313.02 247.66V264.74C313.02 266.448 314.158 267.587 315.866 267.587C317.573 267.587 318.711 266.448 318.711 264.74V247.66C318.711 245.952 317.573 244.814 315.866 244.814ZM293.101 204.96C291.393 204.96 290.255 206.099 290.255 207.807V224.887C290.255 226.595 291.393 227.734 293.101 227.734C294.808 227.734 295.946 226.595 295.946 224.887V207.807C295.946 206.099 294.808 204.96 293.101 204.96ZM315.866 176.494C317.573 176.494 318.711 175.355 318.711 173.647V150.874C318.711 149.166 317.573 148.027 315.866 148.027C314.158 148.027 313.02 149.166 313.02 150.874V173.647C313.02 175.355 314.158 176.494 315.866 176.494ZM293.101 182.187C294.808 182.187 295.946 181.048 295.946 179.34V167.954C295.946 166.246 294.808 165.107 293.101 165.107C291.393 165.107 290.255 166.246 290.255 167.954V179.34C290.255 181.048 291.393 182.187 293.101 182.187ZM293.101 250.507C291.393 250.507 290.255 251.646 290.255 253.354V264.74C290.255 266.448 291.393 267.587 293.101 267.587C294.808 267.587 295.946 266.448 295.946 264.74V253.354C295.946 251.646 294.808 250.507 293.101 250.507ZM236.188 239.12C237.896 239.12 239.034 237.982 239.034 236.274V224.887C239.034 223.179 237.896 222.04 236.188 222.04C234.481 222.04 233.343 223.179 233.343 224.887V236.274C233.343 237.982 234.481 239.12 236.188 239.12ZM236.188 278.974C237.896 278.974 239.034 277.835 239.034 276.127V264.74C239.034 263.032 237.896 261.894 236.188 261.894C234.481 261.894 233.343 263.032 233.343 264.74V276.127C233.343 277.835 234.481 278.974 236.188 278.974ZM236.188 301.747C234.481 301.747 233.343 302.886 233.343 304.594V321.674C233.343 323.382 234.481 324.52 236.188 324.52C237.896 324.52 239.034 323.382 239.034 321.674V304.594C239.034 302.886 237.896 301.747 236.188 301.747ZM293.101 352.987C291.393 352.987 290.255 354.125 290.255 355.833V401.38C290.255 403.088 291.393 404.227 293.101 404.227C294.808 404.227 295.946 403.088 295.946 401.38V355.833C295.946 354.125 294.808 352.987 293.101 352.987ZM315.866 352.987C314.158 352.987 313.02 354.125 313.02 355.833V401.38C313.02 403.088 314.158 404.227 315.866 404.227C317.573 404.227 318.711 403.088 318.711 401.38V355.833C318.711 354.125 317.573 352.987 315.866 352.987ZM372.778 352.987C371.071 352.987 369.932 354.125 369.932 355.833V401.38C369.932 403.088 371.071 404.227 372.778 404.227C374.485 404.227 375.624 403.088 375.624 401.38V355.833C375.624 354.125 374.485 352.987 372.778 352.987ZM566.281 261.894C564.574 261.894 563.436 263.032 563.436 264.74V276.127C563.436 277.835 564.574 278.974 566.281 278.974C567.989 278.974 569.127 277.835 569.127 276.127V264.74C569.127 263.032 567.989 261.894 566.281 261.894ZM566.281 301.747C564.574 301.747 563.436 302.886 563.436 304.594V321.674C563.436 323.382 564.574 324.52 566.281 324.52C567.989 324.52 569.127 323.382 569.127 321.674V304.594C569.127 302.886 567.989 301.747 566.281 301.747ZM236.188 352.987C234.481 352.987 233.343 354.125 233.343 355.833V401.38C233.343 403.088 234.481 404.227 236.188 404.227C237.896 404.227 239.034 403.088 239.034 401.38V355.833C239.034 354.125 237.896 352.987 236.188 352.987ZM429.691 352.987C427.983 352.987 426.845 354.125 426.845 355.833V401.38C426.845 403.088 427.983 404.227 429.691 404.227C431.398 404.227 432.536 403.088 432.536 401.38V355.833C432.536 354.125 431.398 352.987 429.691 352.987ZM486.603 352.987C484.896 352.987 483.758 354.125 483.758 355.833V401.38C483.758 403.088 484.896 404.227 486.603 404.227C488.311 404.227 489.449 403.088 489.449 401.38V355.833C489.449 354.125 488.311 352.987 486.603 352.987ZM509.369 352.987C507.661 352.987 506.523 354.125 506.523 355.833V401.38C506.523 403.088 507.661 404.227 509.369 404.227C511.076 404.227 512.214 403.088 512.214 401.38V355.833C512.214 354.125 511.076 352.987 509.369 352.987ZM566.281 352.987C564.574 352.987 563.436 354.125 563.436 355.833V401.38C563.436 403.088 564.574 404.227 566.281 404.227C567.989 404.227 569.127 403.088 569.127 401.38V355.833C569.127 354.125 567.989 352.987 566.281 352.987ZM429.691 290.36C427.983 290.36 426.845 291.499 426.845 293.207V321.674C426.845 323.382 427.983 324.52 429.691 324.52C431.398 324.52 432.536 323.382 432.536 321.674V293.207C432.536 291.499 431.398 290.36 429.691 290.36ZM372.778 290.36C371.071 290.36 369.932 291.499 369.932 293.207V321.674C369.932 323.382 371.071 324.52 372.778 324.52C374.485 324.52 375.624 323.382 375.624 321.674V293.207C375.624 291.499 374.485 290.36 372.778 290.36ZM315.866 290.36C314.158 290.36 313.02 291.499 313.02 293.207V321.674C313.02 323.382 314.158 324.52 315.866 324.52C317.573 324.52 318.711 323.382 318.711 321.674V293.207C318.711 291.499 317.573 290.36 315.866 290.36ZM293.101 290.36C291.393 290.36 290.255 291.499 290.255 293.207V321.674C290.255 323.382 291.393 324.52 293.101 324.52C294.808 324.52 295.946 323.382 295.946 321.674V293.207C295.946 291.499 294.808 290.36 293.101 290.36ZM566.281 239.12C567.989 239.12 569.127 237.982 569.127 236.274V224.887C569.127 223.179 567.989 222.04 566.281 222.04C564.574 222.04 563.436 223.179 563.436 224.887V236.274C563.436 237.982 564.574 239.12 566.281 239.12ZM486.603 199.267C484.896 199.267 483.758 200.406 483.758 202.114V219.194C483.758 220.902 484.896 222.04 486.603 222.04C488.311 222.04 489.449 220.902 489.449 219.194V202.114C489.449 200.406 488.311 199.267 486.603 199.267ZM486.603 244.814C484.896 244.814 483.758 245.952 483.758 247.66V264.74C483.758 266.448 484.896 267.587 486.603 267.587C488.311 267.587 489.449 266.448 489.449 264.74V247.66C489.449 245.952 488.311 244.814 486.603 244.814ZM486.603 290.36C484.896 290.36 483.758 291.499 483.758 293.207V321.674C483.758 323.382 484.896 324.52 486.603 324.52C488.311 324.52 489.449 323.382 489.449 321.674V293.207C489.449 291.499 488.311 290.36 486.603 290.36ZM509.369 204.96C507.661 204.96 506.523 206.099 506.523 207.807V224.887C506.523 226.595 507.661 227.734 509.369 227.734C511.076 227.734 512.214 226.595 512.214 224.887V207.807C512.214 206.099 511.076 204.96 509.369 204.96ZM486.603 176.494C488.311 176.494 489.449 175.355 489.449 173.647V150.874C489.449 149.166 488.311 148.027 486.603 148.027C484.896 148.027 483.758 149.166 483.758 150.874V173.647C483.758 175.355 484.896 176.494 486.603 176.494ZM509.369 182.187C511.076 182.187 512.214 181.048 512.214 179.34V167.954C512.214 166.246 511.076 165.107 509.369 165.107C507.661 165.107 506.523 166.246 506.523 167.954V179.34C506.523 181.048 507.661 182.187 509.369 182.187ZM509.369 250.507C507.661 250.507 506.523 251.646 506.523 253.354V264.74C506.523 266.448 507.661 267.587 509.369 267.587C511.076 267.587 512.214 266.448 512.214 264.74V253.354C512.214 251.646 511.076 250.507 509.369 250.507ZM509.369 290.36C507.661 290.36 506.523 291.499 506.523 293.207V321.674C506.523 323.382 507.661 324.52 509.369 324.52C511.076 324.52 512.214 323.382 512.214 321.674V293.207C512.214 291.499 511.076 290.36 509.369 290.36Z" fill="black"/>
<path d="M221.96 34.16V40.486M221.96 84.7674V91.0934M236.188 37.974L233.026 43.4524M210.893 81.801L207.732 87.2794M246.604 48.3934L241.127 51.5563M202.792 73.6971L197.316 76.86M250.416 62.6267H244.093M199.827 62.6267H193.503M246.604 76.86L241.127 73.6971M202.792 51.5563L197.316 48.3934M236.188 87.2794L233.026 81.801M210.893 43.4524L207.732 37.974M237.769 62.6267C237.769 71.361 230.691 78.4415 221.96 78.4415C213.229 78.4415 206.151 71.361 206.151 62.6267C206.151 53.8924 213.229 46.8119 221.96 46.8119C230.691 46.8119 237.769 53.8924 237.769 62.6267Z" stroke="black" stroke-width="5" stroke-linecap="round" stroke-linejoin="round"/>
<path d="M489.45 115.067C496.905 115.067 513.902 112.877 522.252 104.117C532.689 93.1667 531.943 89.5168 541.635 89.5168C549.388 89.5168 552.32 94.3834 552.817 96.8167C552.569 91.4634 555.203 80.9028 567.727 81.4868C568.224 76.8635 572.797 67.7628 587.111 68.3468C590.59 68.3467 597.995 69.5147 599.784 74.1867C603.263 74.1867 610.221 76.2306 610.221 84.4066V91.7066C614.197 90.9767 622.447 90.9769 623.64 96.8167C625.131 104.117 619.167 107.767 616.931 108.497C621.901 108.253 632.437 110.395 634.823 120.906C635.568 119.203 638.55 115.796 644.514 115.796C645.011 113.363 648.689 108.497 659.424 108.497C670.16 108.497 672.346 117.256 672.098 121.636C675.08 120.906 681.193 120.906 681.789 126.746C682.038 127.233 683.877 127.622 689.244 125.286C695.954 122.366 701.172 126.746 703.409 128.206C705.645 129.666 710.118 132.586 722.792 131.856L713.1 132.586C705.397 132.1 688.052 132.294 680.298 136.966C672.545 141.638 665.14 140.373 662.406 139.156C657.933 142.076 646.751 145.726 637.805 136.966C635.817 135.993 630.797 135.214 626.622 139.886C621.404 145.726 618.422 148.646 607.985 147.916C597.548 147.186 594.566 139.886 587.856 139.886C582.488 139.886 578.662 140.373 577.419 140.616C578.662 137.453 583.83 131.564 594.566 133.316C597.299 133.803 601.573 133.316 596.802 127.476C592.922 122.727 594.038 119.587 595.66 118.056C593.052 119.584 587.975 120.965 581.892 117.986C574.735 114.483 570.461 118.96 569.218 121.636C566.485 126.746 556.843 134.338 540.144 123.826C523.445 113.315 499.141 115.067 489.45 115.067Z" fill="white"/>
<path d="M489.45 115.067C496.905 115.067 513.902 112.877 522.252 104.117C532.689 93.1667 531.943 89.5168 541.635 89.5168C549.388 89.5168 552.32 94.3834 552.817 96.8167C552.569 91.4634 555.203 80.9028 567.727 81.4868C568.224 76.8635 572.797 67.7628 587.111 68.3468C590.59 68.3467 597.995 69.5147 599.784 74.1867C603.263 74.1867 610.221 76.2306 610.221 84.4066V91.7066C614.197 90.9767 622.447 90.9769 623.64 96.8167C625.131 104.117 619.167 107.767 616.931 108.497C621.901 108.253 632.437 110.395 634.823 120.906C635.568 119.203 638.55 115.796 644.514 115.796C645.011 113.363 648.689 108.497 659.424 108.497C670.16 108.497 672.346 117.256 672.098 121.636C675.08 120.906 681.193 120.906 681.789 126.746C682.038 127.233 683.877 127.622 689.244 125.286C695.954 122.366 701.172 126.746 703.409 128.206C705.645 129.666 710.118 132.586 722.792 131.856L713.1 132.586C705.397 132.1 688.052 132.294 680.298 136.966C672.545 141.638 665.14 140.373 662.406 139.156C657.933 142.076 646.751 145.726 637.805 136.966C635.817 135.993 630.797 135.214 626.622 139.886C621.404 145.726 618.422 148.646 607.985 147.916C597.548 147.186 594.566 139.886 587.856 139.886C582.488 139.886 578.662 140.373 577.419 140.616C578.662 137.453 583.83 131.564 594.566 133.316C597.299 133.803 601.573 133.316 596.802 127.476C592.031 121.636 594.814 118.23 596.802 117.256C594.814 118.96 589.049 121.49 581.892 117.986C574.735 114.483 570.461 118.96 569.218 121.636C566.485 126.746 556.843 134.338 540.144 123.826C523.445 113.315 499.141 115.067 489.45 115.067Z" stroke="black" stroke-width="5" stroke-linejoin="round"/>
<path d="M293.384 55.8576C286.668 62.9195 272.996 64.685 267 64.685C274.795 64.685 294.344 63.2725 307.776 71.7467C321.208 80.2209 328.963 74.1007 331.162 69.9812C332.161 67.8234 335.599 64.214 341.356 67.0388C347.112 69.8635 351.75 67.8234 353.349 66.4503C355.148 67.9006 355.762 74.0609 364.142 74.563C377.598 75.3691 376.793 66.4503 392.478 66.4503L415 67.0388C415 67.0388 383.771 64.6241 378.804 51.9907C376.391 45.8532 370.5 42 363.5 43.5C363.5 36.9089 357.298 35.5 354.5 35.5C353.349 28.5 348.352 27.0216 345.553 27.0216C334.04 26.5508 330.362 33.8874 329.963 37.6145C319.889 37.1437 317.77 45.6572 317.97 49.9727C317.57 48.0111 315.211 44.0879 308.975 44.0879C301.18 44.0879 300.1 48.7958 293.384 55.8576Z" fill="white" stroke="black" stroke-width="5" stroke-linejoin="round"/>
</svg>
