<?xml version="1.0" encoding="utf-8"?>
<!-- Generator: Adobe Illustrator 27.2.0, SVG Export Plug-In . SVG Version: 6.00 Build 0)  -->
<svg version="1.1" id="Layer_1" xmlns:serif="http://www.serif.com/"
	 xmlns="http://www.w3.org/2000/svg" xmlns:xlink="http://www.w3.org/1999/xlink" x="0px" y="0px" viewBox="0 0 534 164"
	 style="enable-background:new 0 0 534 164;" xml:space="preserve">
<style type="text/css">
	.st0{fill:#030404;}
	.st1{fill-rule:evenodd;clip-rule:evenodd;fill:#030404;}
</style>
<g>
	<g>
		<path d="M22.9,39.6h18.8v70.9h33.2v12.6h-52V39.6z"/>
		<path d="M101.5,48.9c0,5.2-3.8,9.4-10.2,9.4c-5.9,0-9.8-4.2-9.8-9.4c0-5.3,4-9.4,10-9.4S101.4,43.6,101.5,48.9z M82.1,123.1V66.9
			h18.8v56.3H82.1z"/>
		<path d="M112.7,85.1c0-7.6-0.2-12.8-0.5-18.3h17.2l0,7.4h0.4c2.5-4,8.5-9.8,18.7-9.8c12.4,0,21.7,8.3,21.7,26.1v32.6h-18.8V92.8
			c0-7.8-2.7-13.1-9.5-13.1c-5.2,0-8.3,3.6-9.7,7.1c-0.5,1.2-0.6,3-0.6,4.7v31.7h-18.8V85.1z"/>
		<path d="M200.8,91.3h0.2c1.4-2.6,2.9-5.1,4.3-7.3l12.3-17.1h22.7l-21.7,23.5l24.8,32.8h-23.2l-14.7-21.7l-4.7,5.9v15.7h-18.8v-88
			h18.8L200.8,91.3L200.8,91.3z"/>
		<path d="M258.5,102.1c0.5,7.8,8.3,11.5,17.1,11.5c6.4,0,11.6-0.9,16.7-2.6l2.5,9.5c-6.2,2.6-13.8,3.8-21.9,3.8
			c-20.6,0-32.3-8.7-32.3-27.6c0-15.4,9.5-30.2,30.6-30.2c19.6,0,27,13.1,27,28.1c0,3.2-0.4,6.1-0.6,7.4L258.5,102.1L258.5,102.1z
			 M280.7,89.2c0-4.6-2-12.3-10.7-12.3c-7.9,0-11.2,7.3-11.6,12.3H280.7z"/>
		<path d="M365.9,35.2v73.1c0,6.8,0.2,10.8,0.5,14.9h-16.7l-0.7-8.8h-0.4c-3.7,6.7-11.1,10.2-19,10.2c-14.4,0-25.9-9-25.9-27.9
			c-0.1-20.4,12.6-32.3,27.1-32.3c7.6,0,13.3,2.7,16,6.8h0.2V35.2H365.9z M347.1,91.4c0-1,0-2.4-0.2-3.5c-1.1-5-5.2-9.2-11-9.2
			c-8.7,0-13,7.7-13,17.2c0,10.3,5.1,16.7,12.9,16.7c5.5,0,9.9-3.7,11-9c0.2-1.4,0.4-2.9,0.4-4.3L347.1,91.4L347.1,91.4z"/>
	</g>
	<g>
		<path d="M506.1,20.1H392.4c-2.8,0-5,2.3-5,5v113.7c0,2.8,2.3,5,5,5h113.7c2.8,0,5-2.3,5-5V25.2C511.1,22.4,508.9,20.1,506.1,20.1z
			 M427.2,121.1h-17.2V65.7h17.2V121.1z M418.8,59.6c-5.4,0-8.9-3.8-8.9-8.6c0-4.9,3.6-8.6,9.2-8.6c5.5,0,8.9,3.7,9,8.6
			C428.1,55.7,424.6,59.6,418.8,59.6z M490.9,121.1h-17.2V91.5c0-7.1-2.5-12-8.7-12c-4.7,0-7.6,3.3-8.8,6.4
			c-0.5,1.1-0.6,2.7-0.6,4.3v30.8h-17.2V84.5c0-6.9-0.2-13.8-0.5-18.8h17l0,8.8h0.6c2.3-3.6,6.3-8.9,15.6-8.9
			c11.3,0,19.8,7.6,19.8,23.8L490.9,121.1L490.9,121.1z"/>
	</g>
</g>
</svg>
