<?xml version="1.0" ?><!DOCTYPE svg  PUBLIC '-//W3C//DTD SVG 1.1//EN'  'http://www.w3.org/Graphics/SVG/1.1/DTD/svg11.dtd'><svg height="512px" style="enable-background:new 0 0 512 512;" version="1.1" viewBox="0 0 512 512" width="512px" xml:space="preserve" xmlns="http://www.w3.org/2000/svg" xmlns:xlink="http://www.w3.org/1999/xlink"><g id="_x38__x2C__Premier_Pro_x2C__Adobe"><g><path d="M0,0v512h512V0H0z M182.447,276c-9.278,0-18.447,0-21.447,0v87.447c0,2.31,0.232,2.553-1.422,2.553h-35.137    c-1.657,0-2.441-0.243-2.441-2.169V112.355c0-1.926,0.394-2.643,2.048-2.643c12.596-0.383,37.514-0.717,62.706-0.717    c64.966,0,89.751,37.742,90.078,82.45C276.832,252.722,231.173,276,182.447,276z M401,210.255c0,1.926-0.664,2.697-2.744,2.697    C378.459,212.181,370,211.56,355,217.348v144.978c0,2.315-0.722,2.675-2.802,2.675h-36.455c-2.084,0-2.743-0.359-2.743-2.675    V232.45c0-16.958-0.734-29.759-1.773-42.477c-0.346-1.543,0.204-2.315,1.943-2.315c0,0,33.595-12.507,81.148-15.069    c1.385-0.075,3.202,0,4.592,0.388c1.738,0.384,2.09,0.772,2.09,3.853V210.255z"/><path d="M186.31,146.617c-12.927,0-21.31,0.389-25.31,0.772v91.129c4,0.389,8.021,0.771,21.945,0.771    c26.185,0,51.527-7.466,51.527-46.006C234.472,162.453,217.465,146.617,186.31,146.617z"/></g></g><g id="Layer_1"/></svg>