<?xml version="1.0" standalone="no"?>
<!DOCTYPE svg PUBLIC "-//W3C//DTD SVG 20010904//EN"
 "http://www.w3.org/TR/2001/REC-SVG-20010904/DTD/svg10.dtd">
<svg version="1.0" xmlns="http://www.w3.org/2000/svg"
 width="558.000000pt" height="558.000000pt" viewBox="0 0 558.000000 558.000000"
 preserveAspectRatio="xMidYMid meet">
<metadata>
Created by potrace 1.14, written by Peter Selinger 2001-2017
</metadata>
<g transform="translate(0.000000,558.000000) scale(0.100000,-0.100000)"
fill="#000000" stroke="none">
<path d="M699 5576 c-2 -2 -22 -7 -44 -10 -38 -6 -92 -20 -125 -33 -8 -4 -17
-7 -20 -7 -10 -3 -115 -56 -135 -68 -123 -79 -237 -208 -295 -333 -12 -27 -26
-57 -30 -65 -4 -8 -16 -47 -26 -85 -18 -68 -19 -140 -19 -2185 0 -2035 1
-2118 19 -2184 49 -180 138 -317 287 -438 83 -67 242 -139 347 -156 26 -4 992
-7 2147 -7 2007 0 2103 1 2170 18 301 79 530 325 591 631 11 59 13 415 11
2166 l-3 2095 -21 75 c-81 278 -283 478 -568 564 l-70 21 -2106 3 c-1158 1
-2107 0 -2110 -2z"/>
</g>
</svg>
